<svg viewBox="0 0 16 18">
	<path
		fill-rule="evenodd"
		clip-rule="evenodd"
		d="M10.947 15.6227C10.6913 15.6227 10.484 15.3875 10.484 15.0974V6.07858C10.484 5.78846 10.6913 5.55328 10.947 5.55328C11.2026 5.55328 11.409 5.78846 11.409 6.07858V15.0974C11.409 15.3875 11.2026 15.6227 10.947 15.6227ZM8.05734 15.6227C7.80082 15.6227 7.59442 15.3875 7.59442 15.0974V6.07858C7.59442 5.78846 7.80082 5.55328 8.05734 5.55328C8.31215 5.55328 8.5194 5.78846 8.5194 6.07858V15.0974C8.5194 15.3875 8.31215 15.6227 8.05734 15.6227ZM5.16685 15.6227C4.91118 15.6227 4.70393 15.3875 4.70393 15.0974V6.07858C4.70393 5.78846 4.91118 5.55328 5.16685 5.55328C5.42251 5.55328 5.62976 5.78846 5.62976 6.07858V15.0974C5.62976 15.3875 5.42251 15.6227 5.16685 15.6227ZM13.2777 16.6578C13.2777 16.999 13.0331 17.2843 12.7392 17.2843H3.24385C2.94996 17.2843 2.70533 16.999 2.70533 16.6578V3.93591H13.2938V16.6578H13.2777ZM6.29484 1.61977C6.34411 1.54362 6.40866 1.48676 6.50634 1.48676H9.49279C9.57433 1.48676 9.65588 1.54362 9.70514 1.61977L10.3413 2.81591H5.65865L6.29484 1.61977ZM15.0554 2.81592H11.4668L10.5044 1.03086C10.2759 0.613507 9.9005 0.36676 9.47666 0.36676H6.50634C6.0825 0.36676 5.70792 0.613507 5.47943 1.03086L4.53236 2.81592H0.943691C0.682928 2.81592 0.470581 3.06266 0.470581 3.36628C0.470581 3.66989 0.682928 3.91664 0.943691 3.91664H1.7591V16.6193C1.7591 17.588 2.42842 18.3668 3.25998 18.3668H12.7553C13.5877 18.3668 14.2562 17.588 14.2562 16.6193V3.93592H15.0554C15.3171 3.93592 15.5294 3.68917 15.5294 3.38556C15.5294 3.08194 15.3171 2.81592 15.0554 2.81592Z"
		fill="currentColor"
	></path>
	<path
		d="M13.2777 16.6578V16.5578H13.1777V16.6578H13.2777ZM2.70533 3.93591V3.83591H2.60533V3.93591H2.70533ZM13.2938 3.93591H13.3938V3.83591H13.2938V3.93591ZM13.2938 16.6578V16.7578H13.3938V16.6578H13.2938ZM6.29484 1.61977L6.21057 1.56525L6.20655 1.57281L6.29484 1.61977ZM9.70514 1.61977L9.79375 1.57264L9.7891 1.56545L9.70514 1.61977ZM10.3413 2.81591V2.91591H10.5078L10.4296 2.76895L10.3413 2.81591ZM5.65865 2.81591L5.57036 2.76895L5.4922 2.91591H5.65865V2.81591ZM11.4668 2.81592L11.3788 2.86337L11.4071 2.91592H11.4668V2.81592ZM10.5044 1.03086L10.5924 0.983401L10.5921 0.982835L10.5044 1.03086ZM5.47943 1.03086L5.39171 0.982831L5.39109 0.983989L5.47943 1.03086ZM4.53236 2.81592V2.91592H4.59251L4.6207 2.86278L4.53236 2.81592ZM1.7591 3.91664H1.8591V3.81664H1.7591V3.91664ZM14.2562 3.93592V3.83592H14.1562V3.93592H14.2562ZM10.947 15.5227C10.758 15.5227 10.584 15.3445 10.584 15.0974H10.384C10.384 15.4305 10.6246 15.7227 10.947 15.7227V15.5227ZM10.584 15.0974V6.07858H10.384V15.0974H10.584ZM10.584 6.07858C10.584 5.83144 10.758 5.65328 10.947 5.65328V5.45328C10.6246 5.45328 10.384 5.74549 10.384 6.07858H10.584ZM10.947 5.65328C11.1357 5.65328 11.309 5.83119 11.309 6.07858H11.509C11.509 5.74574 11.2696 5.45328 10.947 5.45328V5.65328ZM11.309 6.07858V15.0974H11.509V6.07858H11.309ZM11.309 15.0974C11.309 15.3448 11.1357 15.5227 10.947 15.5227V15.7227C11.2696 15.7227 11.509 15.4302 11.509 15.0974H11.309ZM8.05734 15.5227C7.86767 15.5227 7.69442 15.3447 7.69442 15.0974H7.49442C7.49442 15.4303 7.73398 15.7227 8.05734 15.7227V15.5227ZM7.69442 15.0974V6.07858H7.49442V15.0974H7.69442ZM7.69442 6.07858C7.69442 5.83131 7.86767 5.65328 8.05734 5.65328V5.45328C7.73398 5.45328 7.49442 5.74562 7.49442 6.07858H7.69442ZM8.05734 5.65328C8.24531 5.65328 8.4194 5.83131 8.4194 6.07858H8.6194C8.6194 5.74562 8.379 5.45328 8.05734 5.45328V5.65328ZM8.4194 6.07858V15.0974H8.6194V6.07858H8.4194ZM8.4194 15.0974C8.4194 15.3447 8.24531 15.5227 8.05734 15.5227V15.7227C8.379 15.7227 8.6194 15.4303 8.6194 15.0974H8.4194ZM5.16685 15.5227C4.97791 15.5227 4.80393 15.3445 4.80393 15.0974H4.60393C4.60393 15.4305 4.84445 15.7227 5.16685 15.7227V15.5227ZM4.80393 15.0974V6.07858H4.60393V15.0974H4.80393ZM4.80393 6.07858C4.80393 5.83144 4.97791 5.65328 5.16685 5.65328V5.45328C4.84445 5.45328 4.60393 5.74549 4.60393 6.07858H4.80393ZM5.16685 5.65328C5.35578 5.65328 5.52976 5.83144 5.52976 6.07858H5.72976C5.72976 5.74549 5.48925 5.45328 5.16685 5.45328V5.65328ZM5.52976 6.07858V15.0974H5.72976V6.07858H5.52976ZM5.52976 15.0974C5.52976 15.3445 5.35578 15.5227 5.16685 15.5227V15.7227C5.48925 15.7227 5.72976 15.4305 5.72976 15.0974H5.52976ZM13.1777 16.6578C13.1777 16.9586 12.9641 17.1843 12.7392 17.1843V17.3843C13.102 17.3843 13.3777 17.0395 13.3777 16.6578H13.1777ZM12.7392 17.1843H3.24385V17.3843H12.7392V17.1843ZM3.24385 17.1843C3.01892 17.1843 2.80533 16.9586 2.80533 16.6578H2.60533C2.60533 17.0395 2.881 17.3843 3.24385 17.3843V17.1843ZM2.80533 16.6578V3.93591H2.60533V16.6578H2.80533ZM2.70533 4.03591H13.2938V3.83591H2.70533V4.03591ZM13.1938 3.93591V16.6578H13.3938V3.93591H13.1938ZM13.2938 16.5578H13.2777V16.7578H13.2938V16.5578ZM6.3788 1.67409C6.41904 1.61189 6.45686 1.58676 6.50634 1.58676V1.38676C6.36046 1.38676 6.26917 1.47535 6.21088 1.56545L6.3788 1.67409ZM6.50634 1.58676H9.49279V1.38676H6.50634V1.58676ZM9.49279 1.58676C9.52978 1.58676 9.58371 1.61617 9.62118 1.67409L9.7891 1.56545C9.72805 1.47108 9.61889 1.38676 9.49279 1.38676V1.58676ZM9.61685 1.66673L10.253 2.86287L10.4296 2.76895L9.79343 1.57281L9.61685 1.66673ZM10.3413 2.71591H5.65865V2.91591H10.3413V2.71591ZM5.74694 2.86287L6.38313 1.66673L6.20655 1.57281L5.57036 2.76895L5.74694 2.86287ZM15.0554 2.71592H11.4668V2.91592H15.0554V2.71592ZM11.5548 2.76846L10.5924 0.983402L10.4164 1.07831L11.3788 2.86337L11.5548 2.76846ZM10.5921 0.982835C10.3492 0.539173 9.94315 0.26676 9.47666 0.26676V0.46676C9.85786 0.46676 10.2026 0.687841 10.4167 1.07888L10.5921 0.982835ZM9.47666 0.26676H6.50634V0.46676H9.47666V0.26676ZM6.50634 0.26676C6.03977 0.26676 5.63456 0.539253 5.39172 0.982835L5.56715 1.07888C5.78127 0.687761 6.12522 0.46676 6.50634 0.46676V0.26676ZM5.39109 0.983989L4.44402 2.76905L4.6207 2.86278L5.56777 1.07772L5.39109 0.983989ZM4.53236 2.71592H0.943691V2.91592H4.53236V2.71592ZM0.943691 2.71592C0.614072 2.71592 0.370581 3.02213 0.370581 3.36628H0.570581C0.570581 3.1032 0.751785 2.91592 0.943691 2.91592V2.71592ZM0.370581 3.36628C0.370581 3.71043 0.614072 4.01664 0.943691 4.01664V3.81664C0.751785 3.81664 0.570581 3.62936 0.570581 3.36628H0.370581ZM0.943691 4.01664H1.7591V3.81664H0.943691V4.01664ZM1.6591 3.91664V16.6193H1.8591V3.91664H1.6591ZM1.6591 16.6193C1.6591 17.6284 2.35948 18.4668 3.25998 18.4668V18.2668C2.49737 18.2668 1.8591 17.5475 1.8591 16.6193H1.6591ZM3.25998 18.4668H12.7553V18.2668H3.25998V18.4668ZM12.7553 18.4668C13.6567 18.4668 14.3562 17.6284 14.3562 16.6193H14.1562C14.1562 17.5476 13.5187 18.2668 12.7553 18.2668V18.4668ZM14.3562 16.6193V3.93592H14.1562V16.6193H14.3562ZM14.2562 4.03592H15.0554V3.83592H14.2562V4.03592ZM15.0554 4.03592C15.3858 4.03592 15.6294 3.72983 15.6294 3.38556H15.4294C15.4294 3.64851 15.2483 3.83592 15.0554 3.83592V4.03592ZM15.6294 3.38556C15.6294 3.04603 15.3898 2.71592 15.0554 2.71592V2.91592C15.2443 2.91592 15.4294 3.11785 15.4294 3.38556H15.6294Z"
		fill="currentColor"
	></path>
</svg>